<?xml version="1.0" encoding="UTF-8"?> <svg xmlns="http://www.w3.org/2000/svg" width="141" height="50" viewBox="0 0 141 50" fill="none"><g clip-path="url(#clip0_1114_1695)"><path d="M28.4149 29.2628V19.6938H32.2136C32.9071 19.6938 33.5117 19.81 34.0273 20.0424C34.5475 20.2702 34.9468 20.6006 35.2251 21.0334C35.508 21.4663 35.6495 21.9835 35.6495 22.585C35.6495 23.0589 35.5559 23.4758 35.3688 23.8358C35.1818 24.1912 34.924 24.4874 34.5954 24.7244C34.2714 24.9613 33.8973 25.1322 33.4729 25.237L36.156 29.2628H33.7399L31.4333 25.6266H30.4408V29.2628H28.4149ZM30.4408 23.993H31.9466C32.4668 23.993 32.8729 23.8882 33.1649 23.6786C33.4615 23.4644 33.6098 23.1409 33.6098 22.708C33.6098 22.2615 33.4729 21.9266 33.1992 21.7033C32.9299 21.48 32.5352 21.3684 32.0151 21.3684H30.4408V23.993Z" fill="#FFFFFF"></path><path d="M40.4774 29.4679C39.7245 29.4679 39.0629 29.3152 38.4925 29.0099C37.9221 28.7046 37.4772 28.2786 37.1578 27.7318C36.8384 27.185 36.6787 26.5447 36.6787 25.8111C36.6787 25.278 36.77 24.7881 36.9525 24.3416C37.1396 23.895 37.3997 23.51 37.7328 23.1865C38.0704 22.8584 38.4651 22.6055 38.9168 22.4278C39.3731 22.2455 39.8728 22.1544 40.4158 22.1544C41.0135 22.1544 41.5428 22.2592 42.0037 22.4688C42.4691 22.6784 42.8547 22.9723 43.1604 23.3505C43.4661 23.7242 43.6783 24.1639 43.7969 24.6697C43.9201 25.1755 43.9315 25.7245 43.8312 26.3169H38.5336C38.5336 26.6359 38.6157 26.9138 38.78 27.1508C38.9488 27.3877 39.1838 27.5746 39.4849 27.7113C39.7906 27.8434 40.1466 27.9095 40.5527 27.9095C40.9542 27.9095 41.3375 27.8548 41.7025 27.7454C42.0676 27.6361 42.4121 27.4698 42.736 27.2465L43.4 28.6135C43.1809 28.7821 42.9072 28.9324 42.5786 29.0646C42.2501 29.1922 41.901 29.2901 41.5314 29.3585C41.1664 29.4314 40.815 29.4679 40.4774 29.4679ZM38.6499 24.9431H41.9147C41.901 24.5375 41.7573 24.2163 41.4835 23.9793C41.2143 23.7424 40.8424 23.6239 40.3679 23.6239C39.8933 23.6239 39.4986 23.7424 39.1838 23.9793C38.8735 24.2163 38.6955 24.5375 38.6499 24.9431Z" fill="#FFFFFF"></path><path d="M47.5123 29.461C46.8963 29.461 46.3282 29.3813 45.808 29.2218C45.2878 29.0578 44.843 28.8345 44.4734 28.552L45.1236 27.1576C45.4841 27.4037 45.8742 27.5973 46.294 27.7386C46.7138 27.8753 47.1176 27.9436 47.5055 27.9436C47.8887 27.9436 48.1831 27.8867 48.3884 27.7728C48.5983 27.6543 48.7032 27.4857 48.7032 27.267C48.7032 27.071 48.6097 26.9275 48.4226 26.8364C48.2401 26.7407 47.8842 26.6382 47.3549 26.5288C46.4423 26.3648 45.7761 26.1073 45.3563 25.7564C44.9365 25.401 44.7266 24.9135 44.7266 24.2937C44.7266 23.8563 44.8475 23.4713 45.0894 23.1386C45.3358 22.806 45.6734 22.5485 46.1023 22.3663C46.5313 22.1795 47.0241 22.086 47.5807 22.086C48.1283 22.086 48.6439 22.1612 49.1276 22.3116C49.6158 22.4574 50.0333 22.6625 50.3801 22.9267L49.7504 24.3279C49.5679 24.1821 49.358 24.0545 49.1207 23.9452C48.888 23.8358 48.6416 23.7515 48.3815 23.6923C48.126 23.6285 47.8751 23.5966 47.6287 23.5966C47.2956 23.5966 47.0263 23.6535 46.821 23.7675C46.6157 23.8768 46.513 24.0317 46.513 24.2322C46.513 24.4327 46.6065 24.5808 46.7936 24.6765C46.9807 24.7722 47.3298 24.877 47.8408 24.9909C48.7945 25.1914 49.4721 25.458 49.8736 25.7906C50.2797 26.1187 50.4828 26.5812 50.4828 27.1781C50.4828 27.6383 50.3573 28.0393 50.1063 28.3811C49.8599 28.7228 49.5132 28.9894 49.066 29.1808C48.6234 29.3676 48.1055 29.461 47.5123 29.461Z" fill="#FFFFFF"></path><path d="M51.7517 32.1335V22.3594H53.4902V23.207C53.7548 22.8926 54.0902 22.6397 54.4963 22.4483C54.907 22.2524 55.3929 22.1544 55.9542 22.1544C56.6204 22.1544 57.2136 22.3093 57.7337 22.6192C58.2539 22.9245 58.6623 23.3528 58.9589 23.9042C59.2555 24.4555 59.4038 25.0912 59.4038 25.8111C59.4038 26.326 59.3171 26.8045 59.1437 27.2465C58.9749 27.6885 58.7353 28.0758 58.425 28.4084C58.1148 28.7411 57.7474 29.0008 57.3231 29.1876C56.8987 29.3744 56.431 29.4679 55.92 29.4679C55.4682 29.4679 55.0598 29.3927 54.6948 29.2423C54.3343 29.0919 54.0172 28.88 53.7434 28.6066V32.1335H51.7517ZM55.5846 27.7386C55.9405 27.7386 56.2576 27.6611 56.536 27.5062C56.8189 27.3467 57.0379 27.1234 57.193 26.8364C57.3527 26.5493 57.4326 26.2076 57.4326 25.8111C57.4326 25.4147 57.3527 25.0729 57.193 24.7859C57.0333 24.4988 56.8143 24.2778 56.536 24.1229C56.2576 23.9634 55.9405 23.8836 55.5846 23.8836C55.2332 23.8836 54.9184 23.9634 54.6401 24.1229C54.3617 24.2778 54.1427 24.4988 53.983 24.7859C53.8233 25.0729 53.7434 25.4147 53.7434 25.8111C53.7434 26.2076 53.821 26.5493 53.9761 26.8364C54.1358 27.1234 54.3549 27.3467 54.6332 27.5062C54.9115 27.6611 55.2287 27.7386 55.5846 27.7386Z" fill="#FFFFFF"></path><path d="M63.8193 29.4679C63.0756 29.4679 62.4162 29.3015 61.8413 28.9689C61.2663 28.6363 60.8146 28.1943 60.4861 27.6429C60.1621 27.087 60.0001 26.4764 60.0001 25.8111C60.0001 25.3236 60.0937 24.8611 60.2807 24.4236C60.4678 23.9816 60.7325 23.592 61.0747 23.2548C61.4169 22.9131 61.8207 22.6442 62.2862 22.4483C62.7516 22.2524 63.2626 22.1544 63.8193 22.1544C64.5631 22.1544 65.2202 22.3207 65.7905 22.6533C66.3655 22.986 66.8149 23.4303 67.1389 23.9862C67.4674 24.5375 67.6317 25.1458 67.6317 25.8111C67.6317 26.2941 67.5381 26.7566 67.3511 27.1986C67.164 27.6406 66.8993 28.0325 66.5571 28.3743C66.2194 28.7114 65.8179 28.978 65.3525 29.174C64.8871 29.3699 64.376 29.4679 63.8193 29.4679ZM63.8193 27.7386C64.1707 27.7386 64.4855 27.6611 64.7639 27.5062C65.0422 27.3467 65.2612 27.1234 65.4209 26.8364C65.5806 26.5447 65.6605 26.203 65.6605 25.8111C65.6605 25.4147 65.5806 25.0729 65.4209 24.7859C65.2658 24.4988 65.049 24.2778 64.7707 24.1229C64.4924 23.9634 64.1752 23.8836 63.8193 23.8836C63.4634 23.8836 63.144 23.9634 62.8611 24.1229C62.5828 24.2778 62.3637 24.4988 62.204 24.7859C62.0489 25.0729 61.9713 25.4147 61.9713 25.8111C61.9713 26.2076 62.0512 26.5493 62.2109 26.8364C62.3706 27.1234 62.5896 27.3467 62.8679 27.5062C63.1463 27.6611 63.4634 27.7386 63.8193 27.7386Z" fill="#FFFFFF"></path><path d="M68.7297 29.2628V22.3594H70.7283V23.1386C70.9929 22.7923 71.3055 22.5417 71.666 22.3868C72.031 22.2319 72.412 22.1544 72.809 22.1544C73.4524 22.1544 73.9817 22.282 74.3969 22.5372C74.8167 22.7878 75.127 23.1136 75.3277 23.5146C75.5331 23.9155 75.6357 24.337 75.6357 24.779V29.2628H73.6372V25.401C73.6372 24.9636 73.514 24.615 73.2676 24.3553C73.0257 24.0955 72.6744 23.9657 72.2135 23.9657C71.9215 23.9657 71.6637 24.0317 71.4401 24.1639C71.2165 24.2915 71.0408 24.4715 70.9131 24.7039C70.7899 24.9362 70.7283 25.2051 70.7283 25.5104V29.2628H68.7297Z" fill="#FFFFFF"></path><path d="M79.7438 29.461C79.1278 29.461 78.5597 29.3813 78.0395 29.2218C77.5194 29.0578 77.0745 28.8345 76.7049 28.552L77.3551 27.1576C77.7156 27.4037 78.1057 27.5973 78.5255 27.7386C78.9453 27.8753 79.3491 27.9436 79.737 27.9436C80.1203 27.9436 80.4146 27.8867 80.6199 27.7728C80.8298 27.6543 80.9348 27.4857 80.9348 27.267C80.9348 27.071 80.8412 26.9275 80.6541 26.8364C80.4716 26.7407 80.1157 26.6382 79.5864 26.5288C78.6738 26.3648 78.0076 26.1073 77.5878 25.7564C77.168 25.401 76.9581 24.9135 76.9581 24.2937C76.9581 23.8563 77.079 23.4713 77.3209 23.1386C77.5673 22.806 77.9049 22.5485 78.3339 22.3663C78.7628 22.1795 79.2556 22.086 79.8123 22.086C80.3598 22.086 80.8754 22.1612 81.3591 22.3116C81.8474 22.4574 82.2649 22.6625 82.6116 22.9267L81.982 24.3279C81.7994 24.1821 81.5895 24.0545 81.3523 23.9452C81.1196 23.8358 80.8732 23.7515 80.6131 23.6923C80.3575 23.6285 80.1066 23.5966 79.8602 23.5966C79.5271 23.5966 79.2579 23.6535 79.0525 23.7675C78.8472 23.8768 78.7445 24.0317 78.7445 24.2322C78.7445 24.4327 78.8381 24.5808 79.0251 24.6765C79.2122 24.7722 79.5613 24.877 80.0723 24.9909C81.026 25.1914 81.7036 25.458 82.1052 25.7906C82.5113 26.1187 82.7143 26.5812 82.7143 27.1781C82.7143 27.6383 82.5888 28.0393 82.3379 28.3811C82.0915 28.7228 81.7447 28.9894 81.2975 29.1808C80.8549 29.3676 80.337 29.461 79.7438 29.461Z" fill="#FFFFFF"></path><path d="M83.9832 29.2628V22.3594H85.9818V29.2628H83.9832ZM84.9825 21.2658C84.6494 21.2658 84.3619 21.1633 84.1201 20.9583C83.8783 20.7487 83.7573 20.4707 83.7573 20.1244C83.7573 19.7735 83.8783 19.4956 84.1201 19.2905C84.3619 19.0809 84.6494 18.9761 84.9825 18.9761C85.3156 18.9761 85.6031 19.0809 85.8449 19.2905C86.0867 19.4956 86.2077 19.7735 86.2077 20.1244C86.2077 20.4707 86.0867 20.7487 85.8449 20.9583C85.6031 21.1633 85.3156 21.2658 84.9825 21.2658Z" fill="#FFFFFF"></path><path d="M89.3094 29.2628L86.818 22.3594H88.974L90.5893 27.5404H90.3497L91.9308 22.3594H94.0389L91.6228 29.2628H89.3094Z" fill="#FFFFFF"></path><path d="M98.0425 29.4679C97.2896 29.4679 96.628 29.3152 96.0576 29.0099C95.4872 28.7046 95.0423 28.2786 94.7229 27.7318C94.4035 27.185 94.2438 26.5447 94.2438 25.8111C94.2438 25.278 94.3351 24.7881 94.5176 24.3416C94.7047 23.895 94.9647 23.51 95.2978 23.1865C95.6355 22.8584 96.0302 22.6055 96.4819 22.4278C96.9382 22.2455 97.4379 22.1544 97.9809 22.1544C98.5786 22.1544 99.1079 22.2592 99.5688 22.4688C100.034 22.6784 100.42 22.9723 100.725 23.3505C101.031 23.7242 101.243 24.1639 101.362 24.6697C101.485 25.1755 101.497 25.7245 101.396 26.3169H96.0987C96.0987 26.6359 96.1808 26.9138 96.3451 27.1508C96.5139 27.3877 96.7489 27.5746 97.05 27.7113C97.3557 27.8434 97.7117 27.9095 98.1178 27.9095C98.5193 27.9095 98.9026 27.8548 99.2676 27.7454C99.6327 27.6361 99.9772 27.4698 100.301 27.2465L100.965 28.6135C100.746 28.7821 100.472 28.9324 100.144 29.0646C99.8152 29.1922 99.4661 29.2901 99.0965 29.3585C98.7315 29.4314 98.3801 29.4679 98.0425 29.4679ZM96.215 24.9431H99.4798C99.4661 24.5375 99.3224 24.2163 99.0486 23.9793C98.7794 23.7424 98.4075 23.6239 97.933 23.6239C97.4584 23.6239 97.0637 23.7424 96.7489 23.9793C96.4386 24.2163 96.2606 24.5375 96.215 24.9431Z" fill="#FFFFFF"></path><path d="M105.454 29.2628L101.717 19.6938H103.168L106.131 27.4994L108.972 19.6938H110.382L106.768 29.2628H105.454Z" fill="#FFFFFF"></path><path d="M113.842 29.4679C113.148 29.4679 112.53 29.3061 111.987 28.9826C111.444 28.659 111.017 28.2284 110.707 27.6908C110.396 27.1531 110.241 26.5607 110.241 25.9136C110.241 25.4352 110.33 24.9818 110.508 24.5535C110.686 24.1252 110.937 23.7469 111.261 23.4189C111.585 23.0862 111.966 22.8265 112.404 22.6397C112.842 22.4529 113.321 22.3594 113.842 22.3594C114.54 22.3594 115.16 22.5212 115.703 22.8447C116.246 23.1682 116.673 23.5989 116.983 24.1365C117.293 24.6742 117.449 25.2666 117.449 25.9136C117.449 26.3921 117.36 26.8455 117.182 27.2738C117.004 27.7021 116.753 28.0803 116.429 28.4084C116.105 28.7365 115.724 28.9962 115.286 29.1876C114.848 29.3744 114.366 29.4679 113.842 29.4679ZM113.842 28.3332C114.293 28.3332 114.692 28.2353 115.039 28.0393C115.391 27.8388 115.667 27.5586 115.867 27.1986C116.068 26.8341 116.169 26.4058 116.169 25.9136C116.169 25.417 116.068 24.9886 115.867 24.6287C115.671 24.2641 115.397 23.9839 115.046 23.788C114.695 23.592 114.293 23.4941 113.842 23.4941C113.39 23.4941 112.988 23.592 112.637 23.788C112.29 23.9839 112.016 24.2641 111.816 24.6287C111.619 24.9886 111.521 25.417 111.521 25.9136C111.521 26.4058 111.619 26.8341 111.816 27.1986C112.016 27.5586 112.292 27.8388 112.644 28.0393C112.995 28.2353 113.394 28.3332 113.842 28.3332Z" fill="#FFFFFF"></path><path d="M118.758 29.2628V22.5645H120.017V29.2628H118.758ZM119.387 21.3C119.15 21.3 118.945 21.2203 118.771 21.0608C118.598 20.9013 118.511 20.6985 118.511 20.4525C118.511 20.2064 118.598 20.0059 118.771 19.851C118.945 19.6915 119.15 19.6118 119.387 19.6118C119.629 19.6118 119.834 19.6915 120.003 19.851C120.177 20.0059 120.263 20.2064 120.263 20.4525C120.263 20.6985 120.177 20.9013 120.003 21.0608C119.834 21.2203 119.629 21.3 119.387 21.3Z" fill="#FFFFFF"></path><path d="M124.958 29.4679C124.251 29.4679 123.624 29.3129 123.076 29.0031C122.529 28.6932 122.1 28.2717 121.789 27.7386C121.479 27.2009 121.324 26.5926 121.324 25.9136C121.324 25.3987 121.415 24.9248 121.598 24.492C121.785 24.0591 122.047 23.6832 122.385 23.3642C122.723 23.0452 123.117 22.7992 123.569 22.626C124.025 22.4483 124.523 22.3594 125.061 22.3594C125.499 22.3594 125.903 22.4164 126.273 22.5303C126.642 22.6442 126.984 22.8197 127.299 23.0566L126.656 24.0272C126.45 23.8495 126.211 23.7173 125.937 23.6308C125.663 23.5396 125.374 23.4941 125.068 23.4941C124.566 23.4941 124.13 23.5897 123.761 23.7811C123.396 23.9679 123.113 24.2413 122.912 24.6013C122.711 24.9613 122.611 25.3942 122.611 25.9C122.611 26.6609 122.83 27.2579 123.268 27.6908C123.71 28.1191 124.308 28.3332 125.061 28.3332C125.408 28.3332 125.732 28.2717 126.033 28.1487C126.334 28.0211 126.581 27.8571 126.772 27.6566L127.422 28.6135C127.071 28.8778 126.685 29.0874 126.266 29.2423C125.846 29.3927 125.41 29.4679 124.958 29.4679Z" fill="#FFFFFF"></path><path d="M131.495 29.4679C130.783 29.4679 130.156 29.3198 129.613 29.0236C129.07 28.7274 128.646 28.315 128.34 27.7864C128.034 27.2533 127.881 26.6336 127.881 25.9273C127.881 25.417 127.968 24.9431 128.141 24.5056C128.319 24.0682 128.566 23.69 128.881 23.371C129.2 23.0521 129.572 22.8037 129.996 22.626C130.425 22.4483 130.891 22.3594 131.393 22.3594C131.935 22.3594 132.419 22.4551 132.844 22.6465C133.272 22.8379 133.626 23.1067 133.904 23.453C134.187 23.7948 134.39 24.1981 134.514 24.6628C134.637 25.1231 134.662 25.6243 134.589 26.1665H129.127C129.113 26.6131 129.205 27.005 129.401 27.3422C129.597 27.6748 129.88 27.9345 130.249 28.1214C130.624 28.3082 131.066 28.4016 131.577 28.4016C131.951 28.4016 132.317 28.3424 132.672 28.2239C133.028 28.1054 133.343 27.93 133.617 27.6976L134.151 28.634C133.932 28.8117 133.672 28.9643 133.371 29.0919C133.074 29.215 132.764 29.3084 132.44 29.3722C132.116 29.436 131.801 29.4679 131.495 29.4679ZM129.195 25.1891H133.329C133.311 24.6241 133.136 24.1844 132.802 23.87C132.469 23.551 131.993 23.3915 131.372 23.3915C130.77 23.3915 130.272 23.551 129.88 23.87C129.487 24.1844 129.259 24.6241 129.195 25.1891Z" fill="#FFFFFF"></path><path fill-rule="evenodd" clip-rule="evenodd" d="M14.3982 15.5928C9.20649 15.5928 5 19.7993 5 24.9909C5 26.9289 5.58982 28.7307 6.59445 30.2215L5.69352 33.5789L9.01852 32.6909C10.5417 33.7604 12.3954 34.3891 14.3982 34.3891C19.5898 34.3891 23.7963 30.1826 23.7963 24.9909C23.7963 19.7993 19.5898 15.5928 14.3982 15.5928ZM8.41575 24.1354C8.41575 23.6622 8.79815 23.2798 9.2713 23.2798C9.74445 23.2798 10.1269 23.6622 10.1269 24.1354V25.8465C10.1269 26.3196 9.74445 26.702 9.2713 26.702C8.79815 26.702 8.41575 26.3196 8.41575 25.8465V24.1354ZM12.687 27.5511C12.687 28.0243 12.3046 28.4067 11.8315 28.4067C11.3583 28.4067 10.9759 28.0243 10.9759 27.5511V22.4243C10.9759 21.9511 11.3583 21.5687 11.8315 21.5687C12.3046 21.5687 12.687 21.9511 12.687 22.4243V27.5511ZM15.2537 30.1178C15.2537 30.5909 14.8713 30.9733 14.3982 30.9733C13.925 30.9733 13.5426 30.5909 13.5426 30.1178V19.8641C13.5426 19.3909 13.925 19.0085 14.3982 19.0085C14.8713 19.0085 15.2537 19.3909 15.2537 19.8641V30.1178ZM17.8139 27.5511C17.8139 28.0243 17.4315 28.4067 16.9583 28.4067C16.4852 28.4067 16.1028 28.0243 16.1028 27.5511V22.4243C16.1028 21.9511 16.4852 21.5687 16.9583 21.5687C17.4315 21.5687 17.8139 21.9511 17.8139 22.4243V27.5511ZM20.3806 25.8465C20.3806 26.3196 19.9982 26.702 19.525 26.702C19.0519 26.702 18.6695 26.3196 18.6695 25.8465V24.1354C18.6695 23.6622 19.0519 23.2798 19.525 23.2798C19.9982 23.2798 20.3806 23.6622 20.3806 24.1354V25.8465Z" fill="#FFFFFF"></path></g><defs><clipPath id="clip0_1114_1695"><rect width="141" height="50" fill="white"></rect></clipPath></defs></svg> 